<?xml version="1.0" encoding="utf-8"?>
<!-- Generator: Adobe Illustrator 21.0.0, SVG Export Plug-In . SVG Version: 6.00 Build 0)  -->
<svg version="1.1" id="icon" xmlns="http://www.w3.org/2000/svg" xmlns:xlink="http://www.w3.org/1999/xlink" x="0px" y="0px"
	 viewBox="0 0 128 128" style="enable-background:new 0 0 128 128;" xml:space="preserve">
<style type="text/css">
	.st0{fill:#FFFFFF;}
</style>
<path class="st0" d="M15.5,115c-0.796,0-1.559-0.316-2.122-0.878c-0.563-0.563-0.879-1.326-0.879-2.122V92
	c0-0.794,0.315-1.556,0.876-2.119L50.92,52.247c-2.884-11.141,0.284-22.914,8.482-31.113c6.139-6.139,14.301-9.52,22.981-9.52
	c8.681,0,16.842,3.381,22.98,9.52c12.672,12.672,12.672,33.29,0,45.962c-6.134,6.134-14.291,9.513-22.97,9.513
	c-0.001,0-0.001,0-0.001,0c-2.369,0-4.727-0.257-7.033-0.766L62.582,88.16C62.023,88.699,61.276,89,60.5,89h-5v6
	c0,0.89-0.396,1.735-1.08,2.305l-6,5C47.881,102.754,47.202,103,46.5,103h-5v6c0,0.875-0.382,1.706-1.046,2.276l-3.491,2.998
	c-0.544,0.467-1.237,0.724-1.954,0.724L15.5,115z M18.5,93.241V109h16l1-1.378V100c0-1.657,1.343-3,3-3h6.914l4.086-3.405V86
	c0-1.657,1.343-3,3-3h6.79l13.102-12.628c0.764-0.737,1.859-1.016,2.884-0.731c2.314,0.642,4.71,0.968,7.119,0.968
	c7.076,0,13.728-2.754,18.729-7.755c10.332-10.333,10.332-27.145,0-37.478c-5.006-5.005-11.66-7.762-18.738-7.762
	c-7.078,0-13.733,2.757-18.739,7.762c-7.042,7.042-9.53,17.321-6.495,26.825c0.341,1.068,0.058,2.237-0.734,3.031L18.5,93.241z
	 M88,49.758c-3.039,0-5.897-1.184-8.046-3.333c-2.149-2.149-3.333-5.006-3.333-8.046c0-3.039,1.184-5.897,3.333-8.046
	C82.103,28.184,84.961,27,88,27s5.896,1.184,8.046,3.333c2.149,2.149,3.333,5.007,3.333,8.046c0,3.04-1.184,5.897-3.333,8.046
	C93.896,48.574,91.039,49.758,88,49.758z M88,33c-1.437,0-2.787,0.56-3.804,1.576c-1.016,1.016-1.575,2.367-1.575,3.803
	c0,1.437,0.56,2.788,1.575,3.803c1.017,1.016,2.367,1.576,3.804,1.576c1.436,0,2.787-0.56,3.804-1.576
	c1.016-1.016,1.575-2.366,1.575-3.803s-0.56-2.788-1.575-3.804C90.787,33.56,89.436,33,88,33z"/>
</svg>
